<svg width="84" height="84" viewBox="0 0 84 84" fill="none" xmlns="http://www.w3.org/2000/svg">
<path d="M53.0755 81.01H50.282C50.282 82.0681 50.8798 83.0352 51.8262 83.5084C52.7726 83.9816 53.9051 83.8794 54.7516 83.2447L53.0755 81.01ZM64.2493 72.6296L65.9254 70.3949C64.932 69.6501 63.5666 69.6501 62.5732 70.3949L64.2493 72.6296ZM75.4231 81.01L73.747 83.2447C74.5934 83.8794 75.7259 83.9816 76.6723 83.5084C77.6187 83.0352 78.2165 82.0681 78.2165 81.01H75.4231ZM64.2493 61.4558C56.5355 61.4558 50.282 55.2025 50.282 47.4886H44.6952C44.6952 58.2881 53.4498 67.0427 64.2493 67.0427V61.4558ZM78.2165 47.4886C78.2165 55.2025 71.9631 61.4558 64.2493 61.4558V67.0427C75.0487 67.0427 83.8034 58.2881 83.8034 47.4886H78.2165ZM64.2493 33.5214C71.9631 33.5214 78.2165 39.7747 78.2165 47.4886H83.8034C83.8034 36.6891 75.0487 27.9345 64.2493 27.9345V33.5214ZM64.2493 27.9345C53.4498 27.9345 44.6952 36.6891 44.6952 47.4886H50.282C50.282 39.7747 56.5355 33.5214 64.2493 33.5214V27.9345ZM50.282 58.6624V81.01H55.8689V58.6624H50.282ZM54.7516 83.2447L65.9254 74.8644L62.5732 70.3949L51.3994 78.7752L54.7516 83.2447ZM62.5732 74.8644L73.747 83.2447L77.0991 78.7752L65.9254 70.3949L62.5732 74.8644ZM78.2165 81.01V58.6624H72.6296V81.01H78.2165ZM83.8034 27.9345V8.38034H78.2165V27.9345H83.8034ZM75.4231 0H8.38034V5.58689H75.4231V0ZM0 8.38034V75.4231H5.58689V8.38034H0ZM8.38034 83.8034H44.6952V78.2165H8.38034V83.8034ZM0 75.4231C0 80.0513 3.75201 83.8034 8.38034 83.8034V78.2165C6.83758 78.2165 5.58689 76.9656 5.58689 75.4231H0ZM8.38034 0C3.75201 0 0 3.75201 0 8.38034H5.58689C5.58689 6.83758 6.83758 5.58689 8.38034 5.58689V0ZM83.8034 8.38034C83.8034 3.75201 80.0513 0 75.4231 0V5.58689C76.9656 5.58689 78.2165 6.83758 78.2165 8.38034H83.8034ZM16.7607 27.9345H44.6952V22.3476H16.7607V27.9345ZM16.7607 44.6952H33.5214V39.1083H16.7607V44.6952Z" fill="#10B981"/>
</svg>
