<svg width="84" height="84" viewBox="0 0 84 84" fill="none" xmlns="http://www.w3.org/2000/svg">
<path d="M39.4498 7.66564C40.8329 7.1469 42.3399 7.08206 43.754 7.47111L44.3537 7.66564L68.7964 16.8316C71.3407 17.7857 73.0832 20.1191 73.3042 22.7928L73.328 23.3706V42.0962C73.328 53.6496 66.9926 64.2403 56.8851 69.7208L55.9559 70.2049L44.2441 76.0606C42.9333 76.7162 41.4165 76.789 40.0599 76.2792L39.5594 76.0606L27.8475 70.2049C17.5139 65.0378 10.8745 54.635 10.4928 43.1437L10.4755 42.0962V23.3706C10.4755 20.6536 12.0485 18.2026 14.4743 17.0568L15.007 16.8316L39.4498 7.66564ZM41.9017 14.2046L17.4591 23.3706V42.0962C17.4591 51.0457 22.347 59.253 30.1528 63.5301L30.9706 63.9584L41.9017 69.4241L52.8329 63.9584C60.8376 59.9562 65.9923 51.9138 66.327 43.0192L66.3444 42.0962V23.3706L41.9017 14.2046ZM53.8888 30.1311C55.2527 28.7674 57.4633 28.7674 58.8269 30.1311C60.0859 31.3898 60.1827 33.3705 59.1174 34.7403L58.8269 35.0692L40.5494 53.3471C39.1564 54.7401 36.9599 54.8396 35.4522 53.6456L35.1172 53.3471L26.7223 44.9521C25.3587 43.5886 25.3587 41.3776 26.7223 40.014C27.9811 38.7553 29.9617 38.6585 31.3316 39.7235L31.6605 40.014L37.8331 46.1868L53.8888 30.1311Z" fill="#10B981"/>
</svg>
