<svg width="181" height="161" viewBox="0 0 181 161" fill="none" xmlns="http://www.w3.org/2000/svg">
<mask id="path-1-outside-1_47_1005" maskUnits="userSpaceOnUse" x="41.415" y="18.7551" width="140" height="142" fill="black">
<rect fill="white" x="41.415" y="18.7551" width="140" height="142"/>
<path d="M47.7298 80.4139C47.9088 80.2683 48.104 80.1402 48.3196 80.0578C51.387 78.8856 54.4315 78.1259 57.3214 80.6424C59.0645 82.1604 59.7856 83.8159 58.1656 85.8865C57.7707 86.3913 57.5021 86.9947 57.1726 87.5512C56.6796 88.3839 56.2675 89.3868 54.9984 89.0029C53.8858 88.6663 53.242 87.8986 53.1776 86.7003C53.1602 86.3775 53.1376 86.0543 53.0988 85.7335C52.9961 84.883 52.701 84.1417 51.7855 83.8928C50.8852 83.6481 50.247 84.1433 49.65 84.737C47.1163 87.2568 46.8319 91.8737 49.0246 95.0421C53.4165 101.388 62.3507 100.955 66.6793 94.1309C69.2373 90.0979 70.335 85.5449 71.0206 80.8817C71.4778 77.7717 71.8236 74.6442 72.3358 71.5438C72.5901 70.0049 72.5533 68.8858 70.6996 68.4533C69.3422 68.1366 68.3677 67.1615 68.3927 65.6938C68.4184 64.1838 69.5244 63.3278 70.8846 63.1283C73.6273 62.7261 74.432 60.9243 74.9924 58.5088C75.888 54.648 77.258 50.9322 79.5763 47.6312C81.6715 44.648 84.4857 42.7562 87.9964 41.8993C88.8799 41.6837 90.006 41.1785 90.4512 42.5479C90.828 43.7069 90.7608 44.9071 89.4214 45.4066C86.6009 46.4584 85.3977 48.7638 84.5882 51.3848C83.7299 54.164 83.059 56.9809 82.8744 59.9077C82.761 61.7051 83.3876 62.5937 85.2355 62.1787C92.4153 60.5665 97.0303 56.7103 98.5215 50.0094C99.4704 45.7456 97.0642 42.3556 92.183 41.3455C81.0336 39.0384 65.7616 44.0624 58.9132 54.2355C57.1044 56.9223 55.9233 59.7612 56.2301 63.0863C56.6188 67.2984 59.6454 69.2759 63.4324 67.557C65.146 66.7792 66.2587 67.6953 67.4029 68.4601C68.4714 69.1743 67.9904 70.3618 67.7009 71.3539C66.6275 75.0315 63.6968 76.6512 58.9035 76.2585C51.2018 75.6275 45.9312 68.0873 47.4389 59.912C48.0973 56.3423 49.6424 53.2433 51.7519 50.2852C59.5343 39.3721 69.3422 30.9541 81.6599 25.5768C109.295 13.5125 142.014 20.5984 161.831 43.1295C171.574 54.2071 177.432 67.1068 179.112 81.8948C183.257 118.389 158.198 151.87 121.953 158.399C92.8686 163.638 63.4179 149.939 48.6872 123.668C48.3358 123.042 48.043 122.36 47.8587 121.668C47.7063 121.096 47.9455 120.535 48.4756 120.199C49.0726 119.821 49.7701 119.762 50.2816 120.235C50.8021 120.716 51.2159 121.342 51.5745 121.964C62.0075 140.055 77.5001 151.274 97.9716 155.052C113.842 157.982 128.989 155.228 143.042 147.07C149.246 143.468 154.794 139.067 159.503 133.641C159.649 133.473 159.803 133.308 159.957 133.144C160.998 132.034 160.582 130.485 159.063 130.395V130.395C151.92 129.974 148.934 126.063 147.791 119.576C147.121 115.776 146.548 111.914 146.746 108.02C146.835 106.271 146.037 105.6 144.397 105.343C140.157 104.681 138.476 105.576 136.815 109.593C133.991 116.421 130.881 123.04 125.209 128.117C117.793 134.755 103.435 136.653 95.1887 128.079C85.738 118.253 91.2932 106.297 99.2815 101.766C100.121 101.289 101.03 100.928 101.924 100.553C103.13 100.049 103.485 99.2069 102.427 98.3779C95.9455 93.296 93.6548 85.7942 90.7666 78.6012C89.5053 75.4599 88.1191 72.3348 85.9317 69.6773V69.6773C84.2772 67.6672 81.7831 69.227 81.3018 71.7856C80.8898 73.9759 80.6087 76.1995 80.1095 78.372C78.8613 83.8035 77.7997 89.3096 75.252 94.3137C71.9848 100.731 67.007 105.331 59.5773 105.813C48.3046 106.545 39.8622 97.7614 43.1223 86.1457C43.8049 83.7138 45.5143 81.9674 47.7298 80.4139V80.4139ZM156.037 94.8425C156.004 96.1598 157.028 97.1812 157.508 95.9536V95.9536C157.869 95.0267 158.478 94.4637 159.537 94.6275C160.662 94.8014 160.826 95.7672 161.01 96.6109C161.852 100.482 160.783 102.588 157.086 104.077C155.972 104.526 155.255 105.046 155.307 106.308C155.484 110.575 155.51 114.872 156.776 119C157.82 122.404 159.771 122.777 162.095 120.056C163.843 118.008 164.987 115.569 166.052 113.13C167.016 110.922 168.423 109.967 170.814 110.662V110.662C171.736 110.929 172.678 110.256 172.994 109.349C181.244 85.717 174.335 51.9756 145.244 33.4076C122.925 19.1623 96.9979 21.0764 78.7734 30.7732C76.211 32.1366 77.9819 35.4946 80.8741 35.249V35.249C87.6028 34.6776 94.2808 34.598 100.532 37.7952C107.978 41.6035 109.951 49.7864 105.05 56.5892C102.438 60.2144 98.7072 62.2411 94.6956 63.8904V63.8904C92.5297 64.781 92.4758 67.034 93.8765 68.9107C98.2944 74.8299 100.585 81.8484 103.428 88.5805C104.058 90.0738 104.923 91.4413 106.023 92.653C106.749 93.4528 107.616 93.9955 108.629 94.3578C109.351 94.6163 110.03 94.7689 110.676 94.215C111.395 93.5988 111.179 92.9573 110.751 92.2802C109.863 90.8777 110.908 90.1902 111.859 89.5686C112.961 88.8484 113.667 89.5648 114.254 90.423C114.847 91.2902 115.398 92.1864 115.998 93.0489C118.766 97.0324 118.77 97.0298 114.87 99.7864C114.131 100.309 113.309 100.839 113.763 101.92C114.166 102.881 114.937 103.526 116.027 103.427C116.814 103.356 117.624 103.148 118.349 102.83C122.236 101.124 126.249 100.034 130.526 99.9655C132.78 99.9294 134.473 99.0281 135.506 96.8199C138.499 90.426 142.449 84.6066 146.554 78.8884V78.8884C147.42 77.6835 146.256 76.5689 144.786 76.3745C140.186 75.7662 135.536 75.0236 130.789 75.3282C128.437 75.4791 126.154 75.959 124.088 77.2062C122.513 78.1564 121.299 79.3927 120.662 81.1467C119.805 83.5086 120.372 85.8241 122.173 87.3046C123.987 88.795 127.03 88.9587 128.984 87.6773C129.791 87.148 130.547 86.4578 131.433 86.1515C132.606 85.7462 133.745 86.0023 134.045 87.4719C134.393 89.1763 132.535 93.3247 130.924 93.9816C127.05 95.5616 122.252 95.8413 118.923 91.9594C113.263 85.3589 115.077 75.7692 122.81 71.7906C129.082 68.5637 135.747 68.8056 142.463 69.6618C148.508 70.4323 154.4 70.3927 159.751 66.8566C160.819 66.1514 162.036 65.2967 163.288 66.3837C164.582 67.5082 163.995 68.8991 163.459 70.1821C162.119 73.3866 160.622 76.532 159.423 79.7873C157.647 84.6051 156.17 89.5076 156.037 94.8425ZM108.924 110.224C108.981 109.182 109.709 108.483 110.217 107.668C111.434 105.71 110.81 104.414 108.507 104.211C105.656 103.959 103.508 105.267 101.874 107.476C99.8753 110.177 99.1907 113.364 99.0717 116.605C98.8793 121.851 101.777 125.946 106.49 127.271C111.175 128.588 115.187 126.77 119.018 124.301C125.038 120.423 126.522 113.6 129.623 107.845C130.303 106.584 129.366 105.427 127.923 105.878C123.659 107.21 118.457 106.713 116.24 112.173C115.531 113.919 113.58 115.17 111.407 114.627C109.474 114.143 109.013 112.417 108.924 110.224ZM142.772 96.1353C142.397 97.2076 142.582 98.6186 143.66 98.9779C144.778 99.3504 145.92 98.9536 146.238 97.7563C146.262 97.6641 146.286 97.5719 146.311 97.4797C147.188 94.1406 143.914 92.8772 142.772 96.1353V96.1353Z"/>
</mask>
<path d="M47.7298 80.4139C47.9088 80.2683 48.104 80.1402 48.3196 80.0578C51.387 78.8856 54.4315 78.1259 57.3214 80.6424C59.0645 82.1604 59.7856 83.8159 58.1656 85.8865C57.7707 86.3913 57.5021 86.9947 57.1726 87.5512C56.6796 88.3839 56.2675 89.3868 54.9984 89.0029C53.8858 88.6663 53.242 87.8986 53.1776 86.7003C53.1602 86.3775 53.1376 86.0543 53.0988 85.7335C52.9961 84.883 52.701 84.1417 51.7855 83.8928C50.8852 83.6481 50.247 84.1433 49.65 84.737C47.1163 87.2568 46.8319 91.8737 49.0246 95.0421C53.4165 101.388 62.3507 100.955 66.6793 94.1309C69.2373 90.0979 70.335 85.5449 71.0206 80.8817C71.4778 77.7717 71.8236 74.6442 72.3358 71.5438C72.5901 70.0049 72.5533 68.8858 70.6996 68.4533C69.3422 68.1366 68.3677 67.1615 68.3927 65.6938C68.4184 64.1838 69.5244 63.3278 70.8846 63.1283C73.6273 62.7261 74.432 60.9243 74.9924 58.5088C75.888 54.648 77.258 50.9322 79.5763 47.6312C81.6715 44.648 84.4857 42.7562 87.9964 41.8993C88.8799 41.6837 90.006 41.1785 90.4512 42.5479C90.828 43.7069 90.7608 44.9071 89.4214 45.4066C86.6009 46.4584 85.3977 48.7638 84.5882 51.3848C83.7299 54.164 83.059 56.9809 82.8744 59.9077C82.761 61.7051 83.3876 62.5937 85.2355 62.1787C92.4153 60.5665 97.0303 56.7103 98.5215 50.0094C99.4704 45.7456 97.0642 42.3556 92.183 41.3455C81.0336 39.0384 65.7616 44.0624 58.9132 54.2355C57.1044 56.9223 55.9233 59.7612 56.2301 63.0863C56.6188 67.2984 59.6454 69.2759 63.4324 67.557C65.146 66.7792 66.2587 67.6953 67.4029 68.4601C68.4714 69.1743 67.9904 70.3618 67.7009 71.3539C66.6275 75.0315 63.6968 76.6512 58.9035 76.2585C51.2018 75.6275 45.9312 68.0873 47.4389 59.912C48.0973 56.3423 49.6424 53.2433 51.7519 50.2852C59.5343 39.3721 69.3422 30.9541 81.6599 25.5768C109.295 13.5125 142.014 20.5984 161.831 43.1295C171.574 54.2071 177.432 67.1068 179.112 81.8948C183.257 118.389 158.198 151.87 121.953 158.399C92.8686 163.638 63.4179 149.939 48.6872 123.668C48.3358 123.042 48.043 122.36 47.8587 121.668C47.7063 121.096 47.9455 120.535 48.4756 120.199C49.0726 119.821 49.7701 119.762 50.2816 120.235C50.8021 120.716 51.2159 121.342 51.5745 121.964C62.0075 140.055 77.5001 151.274 97.9716 155.052C113.842 157.982 128.989 155.228 143.042 147.07C149.246 143.468 154.794 139.067 159.503 133.641C159.649 133.473 159.803 133.308 159.957 133.144C160.998 132.034 160.582 130.485 159.063 130.395V130.395C151.92 129.974 148.934 126.063 147.791 119.576C147.121 115.776 146.548 111.914 146.746 108.02C146.835 106.271 146.037 105.6 144.397 105.343C140.157 104.681 138.476 105.576 136.815 109.593C133.991 116.421 130.881 123.04 125.209 128.117C117.793 134.755 103.435 136.653 95.1887 128.079C85.738 118.253 91.2932 106.297 99.2815 101.766C100.121 101.289 101.03 100.928 101.924 100.553C103.13 100.049 103.485 99.2069 102.427 98.3779C95.9455 93.296 93.6548 85.7942 90.7666 78.6012C89.5053 75.4599 88.1191 72.3348 85.9317 69.6773V69.6773C84.2772 67.6672 81.7831 69.227 81.3018 71.7856C80.8898 73.9759 80.6087 76.1995 80.1095 78.372C78.8613 83.8035 77.7997 89.3096 75.252 94.3137C71.9848 100.731 67.007 105.331 59.5773 105.813C48.3046 106.545 39.8622 97.7614 43.1223 86.1457C43.8049 83.7138 45.5143 81.9674 47.7298 80.4139V80.4139ZM156.037 94.8425C156.004 96.1598 157.028 97.1812 157.508 95.9536V95.9536C157.869 95.0267 158.478 94.4637 159.537 94.6275C160.662 94.8014 160.826 95.7672 161.01 96.6109C161.852 100.482 160.783 102.588 157.086 104.077C155.972 104.526 155.255 105.046 155.307 106.308C155.484 110.575 155.51 114.872 156.776 119C157.82 122.404 159.771 122.777 162.095 120.056C163.843 118.008 164.987 115.569 166.052 113.13C167.016 110.922 168.423 109.967 170.814 110.662V110.662C171.736 110.929 172.678 110.256 172.994 109.349C181.244 85.717 174.335 51.9756 145.244 33.4076C122.925 19.1623 96.9979 21.0764 78.7734 30.7732C76.211 32.1366 77.9819 35.4946 80.8741 35.249V35.249C87.6028 34.6776 94.2808 34.598 100.532 37.7952C107.978 41.6035 109.951 49.7864 105.05 56.5892C102.438 60.2144 98.7072 62.2411 94.6956 63.8904V63.8904C92.5297 64.781 92.4758 67.034 93.8765 68.9107C98.2944 74.8299 100.585 81.8484 103.428 88.5805C104.058 90.0738 104.923 91.4413 106.023 92.653C106.749 93.4528 107.616 93.9955 108.629 94.3578C109.351 94.6163 110.03 94.7689 110.676 94.215C111.395 93.5988 111.179 92.9573 110.751 92.2802C109.863 90.8777 110.908 90.1902 111.859 89.5686C112.961 88.8484 113.667 89.5648 114.254 90.423C114.847 91.2902 115.398 92.1864 115.998 93.0489C118.766 97.0324 118.77 97.0298 114.87 99.7864C114.131 100.309 113.309 100.839 113.763 101.92C114.166 102.881 114.937 103.526 116.027 103.427C116.814 103.356 117.624 103.148 118.349 102.83C122.236 101.124 126.249 100.034 130.526 99.9655C132.78 99.9294 134.473 99.0281 135.506 96.8199C138.499 90.426 142.449 84.6066 146.554 78.8884V78.8884C147.42 77.6835 146.256 76.5689 144.786 76.3745C140.186 75.7662 135.536 75.0236 130.789 75.3282C128.437 75.4791 126.154 75.959 124.088 77.2062C122.513 78.1564 121.299 79.3927 120.662 81.1467C119.805 83.5086 120.372 85.8241 122.173 87.3046C123.987 88.795 127.03 88.9587 128.984 87.6773C129.791 87.148 130.547 86.4578 131.433 86.1515C132.606 85.7462 133.745 86.0023 134.045 87.4719C134.393 89.1763 132.535 93.3247 130.924 93.9816C127.05 95.5616 122.252 95.8413 118.923 91.9594C113.263 85.3589 115.077 75.7692 122.81 71.7906C129.082 68.5637 135.747 68.8056 142.463 69.6618C148.508 70.4323 154.4 70.3927 159.751 66.8566C160.819 66.1514 162.036 65.2967 163.288 66.3837C164.582 67.5082 163.995 68.8991 163.459 70.1821C162.119 73.3866 160.622 76.532 159.423 79.7873C157.647 84.6051 156.17 89.5076 156.037 94.8425ZM108.924 110.224C108.981 109.182 109.709 108.483 110.217 107.668C111.434 105.71 110.81 104.414 108.507 104.211C105.656 103.959 103.508 105.267 101.874 107.476C99.8753 110.177 99.1907 113.364 99.0717 116.605C98.8793 121.851 101.777 125.946 106.49 127.271C111.175 128.588 115.187 126.77 119.018 124.301C125.038 120.423 126.522 113.6 129.623 107.845C130.303 106.584 129.366 105.427 127.923 105.878C123.659 107.21 118.457 106.713 116.24 112.173C115.531 113.919 113.58 115.17 111.407 114.627C109.474 114.143 109.013 112.417 108.924 110.224ZM142.772 96.1353C142.397 97.2076 142.582 98.6186 143.66 98.9779C144.778 99.3504 145.92 98.9536 146.238 97.7563C146.262 97.6641 146.286 97.5719 146.311 97.4797C147.188 94.1406 143.914 92.8772 142.772 96.1353V96.1353Z" fill="#10B981"/>
<path d="M47.7298 80.4139C47.9088 80.2683 48.104 80.1402 48.3196 80.0578C51.387 78.8856 54.4315 78.1259 57.3214 80.6424C59.0645 82.1604 59.7856 83.8159 58.1656 85.8865C57.7707 86.3913 57.5021 86.9947 57.1726 87.5512C56.6796 88.3839 56.2675 89.3868 54.9984 89.0029C53.8858 88.6663 53.242 87.8986 53.1776 86.7003C53.1602 86.3775 53.1376 86.0543 53.0988 85.7335C52.9961 84.883 52.701 84.1417 51.7855 83.8928C50.8852 83.6481 50.247 84.1433 49.65 84.737C47.1163 87.2568 46.8319 91.8737 49.0246 95.0421C53.4165 101.388 62.3507 100.955 66.6793 94.1309C69.2373 90.0979 70.335 85.5449 71.0206 80.8817C71.4778 77.7717 71.8236 74.6442 72.3358 71.5438C72.5901 70.0049 72.5533 68.8858 70.6996 68.4533C69.3422 68.1366 68.3677 67.1615 68.3927 65.6938C68.4184 64.1838 69.5244 63.3278 70.8846 63.1283C73.6273 62.7261 74.432 60.9243 74.9924 58.5088C75.888 54.648 77.258 50.9322 79.5763 47.6312C81.6715 44.648 84.4857 42.7562 87.9964 41.8993C88.8799 41.6837 90.006 41.1785 90.4512 42.5479C90.828 43.7069 90.7608 44.9071 89.4214 45.4066C86.6009 46.4584 85.3977 48.7638 84.5882 51.3848C83.7299 54.164 83.059 56.9809 82.8744 59.9077C82.761 61.7051 83.3876 62.5937 85.2355 62.1787C92.4153 60.5665 97.0303 56.7103 98.5215 50.0094C99.4704 45.7456 97.0642 42.3556 92.183 41.3455C81.0336 39.0384 65.7616 44.0624 58.9132 54.2355C57.1044 56.9223 55.9233 59.7612 56.2301 63.0863C56.6188 67.2984 59.6454 69.2759 63.4324 67.557C65.146 66.7792 66.2587 67.6953 67.4029 68.4601C68.4714 69.1743 67.9904 70.3618 67.7009 71.3539C66.6275 75.0315 63.6968 76.6512 58.9035 76.2585C51.2018 75.6275 45.9312 68.0873 47.4389 59.912C48.0973 56.3423 49.6424 53.2433 51.7519 50.2852C59.5343 39.3721 69.3422 30.9541 81.6599 25.5768C109.295 13.5125 142.014 20.5984 161.831 43.1295C171.574 54.2071 177.432 67.1068 179.112 81.8948C183.257 118.389 158.198 151.87 121.953 158.399C92.8686 163.638 63.4179 149.939 48.6872 123.668C48.3358 123.042 48.043 122.36 47.8587 121.668C47.7063 121.096 47.9455 120.535 48.4756 120.199C49.0726 119.821 49.7701 119.762 50.2816 120.235C50.8021 120.716 51.2159 121.342 51.5745 121.964C62.0075 140.055 77.5001 151.274 97.9716 155.052C113.842 157.982 128.989 155.228 143.042 147.07C149.246 143.468 154.794 139.067 159.503 133.641C159.649 133.473 159.803 133.308 159.957 133.144C160.998 132.034 160.582 130.485 159.063 130.395V130.395C151.92 129.974 148.934 126.063 147.791 119.576C147.121 115.776 146.548 111.914 146.746 108.02C146.835 106.271 146.037 105.6 144.397 105.343C140.157 104.681 138.476 105.576 136.815 109.593C133.991 116.421 130.881 123.04 125.209 128.117C117.793 134.755 103.435 136.653 95.1887 128.079C85.738 118.253 91.2932 106.297 99.2815 101.766C100.121 101.289 101.03 100.928 101.924 100.553C103.13 100.049 103.485 99.2069 102.427 98.3779C95.9455 93.296 93.6548 85.7942 90.7666 78.6012C89.5053 75.4599 88.1191 72.3348 85.9317 69.6773V69.6773C84.2772 67.6672 81.7831 69.227 81.3018 71.7856C80.8898 73.9759 80.6087 76.1995 80.1095 78.372C78.8613 83.8035 77.7997 89.3096 75.252 94.3137C71.9848 100.731 67.007 105.331 59.5773 105.813C48.3046 106.545 39.8622 97.7614 43.1223 86.1457C43.8049 83.7138 45.5143 81.9674 47.7298 80.4139V80.4139ZM156.037 94.8425C156.004 96.1598 157.028 97.1812 157.508 95.9536V95.9536C157.869 95.0267 158.478 94.4637 159.537 94.6275C160.662 94.8014 160.826 95.7672 161.01 96.6109C161.852 100.482 160.783 102.588 157.086 104.077C155.972 104.526 155.255 105.046 155.307 106.308C155.484 110.575 155.51 114.872 156.776 119C157.82 122.404 159.771 122.777 162.095 120.056C163.843 118.008 164.987 115.569 166.052 113.13C167.016 110.922 168.423 109.967 170.814 110.662V110.662C171.736 110.929 172.678 110.256 172.994 109.349C181.244 85.717 174.335 51.9756 145.244 33.4076C122.925 19.1623 96.9979 21.0764 78.7734 30.7732C76.211 32.1366 77.9819 35.4946 80.8741 35.249V35.249C87.6028 34.6776 94.2808 34.598 100.532 37.7952C107.978 41.6035 109.951 49.7864 105.05 56.5892C102.438 60.2144 98.7072 62.2411 94.6956 63.8904V63.8904C92.5297 64.781 92.4758 67.034 93.8765 68.9107C98.2944 74.8299 100.585 81.8484 103.428 88.5805C104.058 90.0738 104.923 91.4413 106.023 92.653C106.749 93.4528 107.616 93.9955 108.629 94.3578C109.351 94.6163 110.03 94.7689 110.676 94.215C111.395 93.5988 111.179 92.9573 110.751 92.2802C109.863 90.8777 110.908 90.1902 111.859 89.5686C112.961 88.8484 113.667 89.5648 114.254 90.423C114.847 91.2902 115.398 92.1864 115.998 93.0489C118.766 97.0324 118.77 97.0298 114.87 99.7864C114.131 100.309 113.309 100.839 113.763 101.92C114.166 102.881 114.937 103.526 116.027 103.427C116.814 103.356 117.624 103.148 118.349 102.83C122.236 101.124 126.249 100.034 130.526 99.9655C132.78 99.9294 134.473 99.0281 135.506 96.8199C138.499 90.426 142.449 84.6066 146.554 78.8884V78.8884C147.42 77.6835 146.256 76.5689 144.786 76.3745C140.186 75.7662 135.536 75.0236 130.789 75.3282C128.437 75.4791 126.154 75.959 124.088 77.2062C122.513 78.1564 121.299 79.3927 120.662 81.1467C119.805 83.5086 120.372 85.8241 122.173 87.3046C123.987 88.795 127.03 88.9587 128.984 87.6773C129.791 87.148 130.547 86.4578 131.433 86.1515C132.606 85.7462 133.745 86.0023 134.045 87.4719C134.393 89.1763 132.535 93.3247 130.924 93.9816C127.05 95.5616 122.252 95.8413 118.923 91.9594C113.263 85.3589 115.077 75.7692 122.81 71.7906C129.082 68.5637 135.747 68.8056 142.463 69.6618C148.508 70.4323 154.4 70.3927 159.751 66.8566C160.819 66.1514 162.036 65.2967 163.288 66.3837C164.582 67.5082 163.995 68.8991 163.459 70.1821C162.119 73.3866 160.622 76.532 159.423 79.7873C157.647 84.6051 156.17 89.5076 156.037 94.8425ZM108.924 110.224C108.981 109.182 109.709 108.483 110.217 107.668C111.434 105.71 110.81 104.414 108.507 104.211C105.656 103.959 103.508 105.267 101.874 107.476C99.8753 110.177 99.1907 113.364 99.0717 116.605C98.8793 121.851 101.777 125.946 106.49 127.271C111.175 128.588 115.187 126.77 119.018 124.301C125.038 120.423 126.522 113.6 129.623 107.845C130.303 106.584 129.366 105.427 127.923 105.878C123.659 107.21 118.457 106.713 116.24 112.173C115.531 113.919 113.58 115.17 111.407 114.627C109.474 114.143 109.013 112.417 108.924 110.224ZM142.772 96.1353C142.397 97.2076 142.582 98.6186 143.66 98.9779C144.778 99.3504 145.92 98.9536 146.238 97.7563C146.262 97.6641 146.286 97.5719 146.311 97.4797C147.188 94.1406 143.914 92.8772 142.772 96.1353V96.1353Z" stroke="#10B981" stroke-width="2" mask="url(#path-1-outside-1_47_1005)"/>
<path d="M31.4082 97.9353L31.4136 97.9385C32.5153 98.6073 33.5146 98.8924 34.3492 98.8223C35.2062 98.7503 35.8639 98.3011 36.1926 97.592C36.5111 96.905 36.4895 96.0457 36.1726 95.1724C35.8536 94.2936 35.2257 93.3661 34.2684 92.497C27.8903 86.706 22.5618 79.9702 18.7794 71.7831C12.9799 59.23 12.2045 46.0213 13.3594 32.3644C13.4268 31.5676 13.1463 30.8165 12.5577 30.5099C12.2479 30.3485 11.8868 30.3376 11.5542 30.5027C11.2361 30.6607 10.9874 30.9562 10.8078 31.3314C6.18994 40.9799 5.03139 51.0919 6.75541 61.5818C9.361 77.4357 17.7271 89.3959 31.4082 97.9353Z" fill="#10B981" stroke="#10B981"/>
<path d="M67.9588 116.628C70.6404 115.853 73.2054 114.671 75.5136 113.021C75.7103 112.88 75.886 112.724 75.9975 112.544C76.119 112.349 76.1895 112.074 76.0482 111.8C75.93 111.571 75.7152 111.454 75.5633 111.391C75.397 111.323 75.2049 111.28 75.0123 111.251C74.2517 111.139 73.1156 111.204 72.2355 111.345C67.7451 112.064 63.3055 112.262 58.8294 112.294C49.7223 112.358 41.0157 110.638 32.746 106.797C20.6346 101.172 11.4288 92.1801 3.57688 81.546C3.0411 80.8204 2.2435 80.3946 1.5476 80.7957C0.882143 81.1792 0.775139 82.0709 1.04965 82.93C1.12616 83.1695 1.209 83.4155 1.29004 83.6563C1.34649 83.824 1.40208 83.9891 1.45404 84.1475C3.83595 91.4115 7.73557 97.7959 13.1126 103.19C20.8664 110.969 29.3727 115.84 38.5571 118.007C47.7393 120.174 57.5682 119.63 67.9588 116.628Z" fill="#10B981" stroke="#10B981"/>
<path d="M65.1941 1.44189L65.4017 1.89676L65.1941 1.44189C60.0104 3.80767 55.4357 7.04558 51.4068 11.0599C41.6397 20.7916 35.944 32.6955 35.503 46.3404C35.166 56.7704 37.5779 67.0775 43.3446 76.202C44.3526 77.7969 45.4682 79.5274 47.3056 80.5936C47.5055 80.7096 47.7587 80.7441 47.9789 80.6786C48.093 80.6446 48.2478 80.5676 48.3518 80.4035C48.4664 80.2224 48.4658 80.0206 48.4098 79.8573L47.9372 80.0194L48.4081 79.8525C48.3049 79.5613 48.2094 79.2978 48.1197 79.0505C47.9671 78.6293 47.8315 78.2552 47.7041 77.8723C43.759 66.0235 42.3171 53.9795 44.6683 41.6471C46.9667 29.5913 52.9419 19.3967 60.8661 10.1532C63.1536 7.48495 65.6424 4.9981 68.3518 2.30887C68.6922 1.97093 68.7099 1.48127 68.5948 1.14481C68.5342 0.967557 68.4193 0.774974 68.227 0.644381C68.017 0.5018 67.7543 0.462254 67.4941 0.551591C66.7282 0.814529 65.949 1.09735 65.1941 1.44189Z" fill="#10B981" stroke="#10B981"/>
<path d="M41.1188 87.3221C31.544 72.9317 26.7202 57.3855 29.1899 39.7967C29.5956 37.3904 29.5401 35.3074 29.1749 33.6771C28.8137 32.064 28.1309 30.8212 27.2133 30.2069C26.7437 29.8925 26.2121 29.7446 25.6562 29.8125C25.1055 29.8798 24.5785 30.1528 24.0976 30.5955C23.1471 31.4705 22.3096 33.0662 21.7019 35.4196C20.1356 41.4853 19.4774 48.2247 20.1565 55.4006C20.6557 60.6747 23.4535 68.0896 27.1091 74.6446C28.9406 77.9288 30.9977 81.0156 33.1078 83.5268C35.211 86.0297 37.3967 87.9965 39.4935 88.9942C40.0249 89.247 40.6455 89.2641 41.0586 88.8889C41.5165 88.473 41.4603 87.8353 41.1188 87.3221Z" fill="#10B981" stroke="#10B981"/>
<path d="M127.685 53.9526L127.696 53.947L121.496 40.9616L121.004 40.8752C121.004 40.8752 121.004 40.8752 121.004 40.8752C120.897 41.4868 120.8 42.0925 120.703 42.6939C120.508 43.9168 120.315 45.1218 120.044 46.3216C119.623 48.1886 119.18 49.1974 118.465 49.8227C117.746 50.4516 116.665 50.7683 114.741 50.9962C114.63 51.0093 114.521 51.0045 114.369 50.9978C114.307 50.9951 114.239 50.9921 114.16 50.9898C113.924 50.9831 113.612 50.9865 113.305 51.1078C112.765 51.3214 112.637 51.8665 112.697 52.2564C112.758 52.6445 113.032 53.1007 113.555 53.2098C115.905 53.6997 117.635 54.6345 118.804 56.0064C119.974 57.378 120.629 59.2401 120.729 61.6714C120.751 62.2053 120.888 62.6599 121.159 62.9765C121.447 63.3132 121.853 63.4489 122.263 63.369C123.023 63.2208 123.603 62.4083 123.778 61.385L123.796 61.28C123.815 61.1717 123.833 61.0638 123.852 60.9563C124.351 58.0849 124.807 55.4594 127.685 53.9526Z" fill="#10B981" stroke="#10B981"/>
</svg>
