<svg width="373" height="331" viewBox="0 0 373 331" fill="none" xmlns="http://www.w3.org/2000/svg">
<mask id="path-1-outside-1_35_950" maskUnits="userSpaceOnUse" x="85.3612" y="38.6569" width="287" height="293" fill="black">
<rect fill="white" x="85.3612" y="38.6569" width="287" height="293"/>
<path d="M98.8586 165.208C105.408 162.651 111.917 160.782 118.085 166.153C121.678 169.281 123.164 172.694 119.825 176.961C119.011 178.002 118.457 179.246 117.778 180.392C116.762 182.109 115.913 184.176 113.297 183.385C111.004 182.691 109.677 181.109 109.544 178.639C109.508 177.973 109.462 177.307 109.382 176.646C109.17 174.893 108.562 173.365 106.675 172.852C104.819 172.348 103.504 173.368 102.273 174.592C97.0511 179.786 96.465 189.302 100.984 195.832C110.037 208.913 128.451 208.02 137.373 193.954C142.645 185.641 144.908 176.257 146.321 166.646C147.263 160.236 147.976 153.79 149.031 147.399C149.556 144.227 149.48 141.921 145.659 141.029C142.861 140.377 140.853 138.367 140.904 135.342C140.957 132.23 143.237 130.465 146.04 130.054C151.693 129.225 153.352 125.511 154.507 120.533C156.353 112.575 159.177 104.916 163.955 98.1127C168.273 91.9639 174.074 88.0649 181.31 86.2987C183.131 85.8542 185.452 84.8129 186.369 87.6355C187.146 90.0243 187.008 92.4979 184.247 93.5275C178.433 95.6954 175.953 100.447 174.285 105.849C172.516 111.578 171.133 117.384 170.753 123.416C170.519 127.121 171.811 128.952 175.619 128.097C190.418 124.774 199.93 116.826 203.003 103.014C204.959 94.2262 200 87.239 189.939 85.1572C166.959 80.4019 135.481 90.7569 121.366 111.725C117.638 117.263 115.203 123.114 115.836 129.967C116.637 138.649 122.875 142.725 130.68 139.182C134.212 137.579 136.506 139.467 138.864 141.043C141.066 142.516 140.075 144.963 139.478 147.008C137.266 154.588 131.225 157.926 121.346 157.117C105.472 155.816 94.6084 140.275 97.7161 123.425C99.073 116.067 102.258 109.68 106.606 103.583C122.646 81.0897 142.861 63.7392 168.25 52.6559C225.209 27.7901 292.646 42.3949 333.491 88.8343C353.572 111.666 365.648 138.254 369.11 168.734C377.653 243.952 326.003 312.961 251.297 326.418C191.352 337.216 130.651 308.981 100.289 254.834C99.5646 253.542 98.9611 252.138 98.5813 250.711C98.2672 249.532 98.7603 248.375 99.8528 247.684C101.083 246.904 102.521 246.783 103.575 247.757C104.648 248.749 105.501 250.04 106.24 251.321C127.744 288.609 159.676 311.732 201.87 319.52C234.581 325.558 265.801 319.883 294.765 303.067C307.551 295.643 318.986 286.573 328.693 275.389C330.077 273.795 331.79 272.39 332.418 270.23C331.113 268.758 329.427 268.796 327.786 268.699C313.063 267.831 306.91 259.769 304.554 246.4C303.173 238.567 301.99 230.607 302.399 222.581C302.583 218.975 300.939 217.593 297.557 217.064C288.819 215.698 285.355 217.543 281.931 225.823C276.111 239.896 269.699 253.539 258.008 264.003C242.723 277.684 213.13 281.596 196.134 263.925C176.655 243.673 188.105 219.031 204.57 209.69C206.301 208.708 208.174 207.963 210.016 207.192C212.501 206.151 213.233 204.416 211.053 202.708C197.694 192.233 192.972 176.771 187.019 161.946C184.42 155.471 181.563 149.03 177.054 143.552C175.272 141.387 173.466 139.138 169.693 139.269C167.224 146.438 166.749 154.099 165.054 161.473C162.481 172.668 160.293 184.017 155.042 194.331C148.308 207.558 138.048 217.038 122.735 218.033C99.5002 219.541 82.0995 201.437 88.819 177.496C90.2258 172.483 93.7492 168.884 98.3155 165.682C98.6641 165.398 98.8586 165.208 98.8586 165.208ZM321.593 199.86C323.784 200.807 324.05 199.069 324.58 197.711C325.326 195.8 326.581 194.64 328.764 194.978C331.082 195.336 331.421 197.327 331.799 199.065C333.535 207.045 331.33 211.385 323.711 214.455C321.416 215.38 319.938 216.451 320.045 219.052C320.41 227.848 320.463 236.704 323.073 245.211C325.225 252.228 329.247 252.996 334.035 247.389C337.639 243.168 339.996 238.14 342.191 233.113C344.178 228.563 347.078 226.593 352.007 228.026C353.089 228.34 354.263 228.342 355.342 228.481C374.104 179.663 360.573 107.903 299.303 68.7963C242.181 32.3376 173.594 47.2336 138.173 80.4279C148.136 76.2831 157.14 73.3975 166.63 72.5916C180.498 71.4137 194.263 71.2498 207.147 77.8395C222.495 85.6889 226.561 102.555 216.459 116.576C211.075 124.048 203.386 128.225 195.118 131.625C192.762 132.593 189.959 132.894 188.087 135.656C200.882 148.976 206.207 166.155 213.115 182.514C214.415 185.592 216.197 188.41 218.465 190.908C219.961 192.556 221.748 193.675 223.836 194.422C225.325 194.954 226.724 195.269 228.056 194.127C229.537 192.857 229.093 191.535 228.209 190.139C226.379 187.249 228.534 185.832 230.494 184.551C232.764 183.066 234.22 184.543 235.43 186.312C236.652 188.099 237.788 189.946 239.024 191.724C244.73 199.934 244.738 199.929 236.699 205.611C235.176 206.687 233.483 207.779 234.418 210.009C235.249 211.989 236.838 213.318 239.083 213.115C240.707 212.969 242.376 212.54 243.871 211.884C251.882 208.368 260.153 206.121 268.967 205.98C273.614 205.905 277.103 204.048 279.233 199.496C285.401 186.318 293.543 174.323 302.005 162.537C302.831 161.386 304.083 160.277 303.341 157.977C292.236 156.706 281.011 154.461 269.511 155.199C264.662 155.511 259.957 156.5 255.698 159.07C252.453 161.029 249.95 163.577 248.638 167.192C246.871 172.06 248.039 176.833 251.752 179.884C255.49 182.956 261.762 183.294 265.79 180.652C267.454 179.561 269.011 178.139 270.839 177.508C273.256 176.672 275.603 177.2 276.221 180.229C276.938 183.742 273.109 192.292 269.789 193.646C261.803 196.903 251.915 197.479 245.054 189.478C233.387 175.874 237.126 156.108 253.065 147.908C265.993 141.257 279.729 141.756 293.571 143.52C306.031 145.109 318.176 145.027 329.205 137.739C331.405 136.285 333.915 134.523 336.494 136.764C339.162 139.081 337.952 141.948 336.846 144.593C334.085 151.198 331.001 157.681 328.528 164.39C324.381 175.642 321.025 187.118 321.593 199.86ZM224.444 227.123C224.561 224.976 226.063 223.536 227.108 221.855C229.617 217.821 228.331 215.149 223.585 214.73C217.707 214.211 213.281 216.906 209.913 221.459C205.794 227.027 204.382 233.595 204.137 240.277C203.741 251.088 209.713 259.529 219.428 262.26C229.084 264.975 237.353 261.226 245.249 256.139C257.657 248.144 260.715 234.082 267.108 222.221C268.509 219.622 266.578 217.237 263.603 218.166C254.815 220.912 244.094 219.886 239.523 231.141C238.061 234.74 234.04 237.319 229.561 236.198C225.578 235.202 224.627 231.643 224.444 227.123ZM293.01 201.82C295.756 205.116 300.39 205.053 301.352 201.426C303.544 193.16 305.307 184.775 305.952 176.122C300.44 183.852 295.881 192.005 293.01 201.82Z"/>
</mask>
<path d="M98.8586 165.208C105.408 162.651 111.917 160.782 118.085 166.153C121.678 169.281 123.164 172.694 119.825 176.961C119.011 178.002 118.457 179.246 117.778 180.392C116.762 182.109 115.913 184.176 113.297 183.385C111.004 182.691 109.677 181.109 109.544 178.639C109.508 177.973 109.462 177.307 109.382 176.646C109.17 174.893 108.562 173.365 106.675 172.852C104.819 172.348 103.504 173.368 102.273 174.592C97.0511 179.786 96.465 189.302 100.984 195.832C110.037 208.913 128.451 208.02 137.373 193.954C142.645 185.641 144.908 176.257 146.321 166.646C147.263 160.236 147.976 153.79 149.031 147.399C149.556 144.227 149.48 141.921 145.659 141.029C142.861 140.377 140.853 138.367 140.904 135.342C140.957 132.23 143.237 130.465 146.04 130.054C151.693 129.225 153.352 125.511 154.507 120.533C156.353 112.575 159.177 104.916 163.955 98.1127C168.273 91.9639 174.074 88.0649 181.31 86.2987C183.131 85.8542 185.452 84.8129 186.369 87.6355C187.146 90.0243 187.008 92.4979 184.247 93.5275C178.433 95.6954 175.953 100.447 174.285 105.849C172.516 111.578 171.133 117.384 170.753 123.416C170.519 127.121 171.811 128.952 175.619 128.097C190.418 124.774 199.93 116.826 203.003 103.014C204.959 94.2262 200 87.239 189.939 85.1572C166.959 80.4019 135.481 90.7569 121.366 111.725C117.638 117.263 115.203 123.114 115.836 129.967C116.637 138.649 122.875 142.725 130.68 139.182C134.212 137.579 136.506 139.467 138.864 141.043C141.066 142.516 140.075 144.963 139.478 147.008C137.266 154.588 131.225 157.926 121.346 157.117C105.472 155.816 94.6084 140.275 97.7161 123.425C99.073 116.067 102.258 109.68 106.606 103.583C122.646 81.0897 142.861 63.7392 168.25 52.6559C225.209 27.7901 292.646 42.3949 333.491 88.8343C353.572 111.666 365.648 138.254 369.11 168.734C377.653 243.952 326.003 312.961 251.297 326.418C191.352 337.216 130.651 308.981 100.289 254.834C99.5646 253.542 98.9611 252.138 98.5813 250.711C98.2672 249.532 98.7603 248.375 99.8528 247.684C101.083 246.904 102.521 246.783 103.575 247.757C104.648 248.749 105.501 250.04 106.24 251.321C127.744 288.609 159.676 311.732 201.87 319.52C234.581 325.558 265.801 319.883 294.765 303.067C307.551 295.643 318.986 286.573 328.693 275.389C330.077 273.795 331.79 272.39 332.418 270.23C331.113 268.758 329.427 268.796 327.786 268.699C313.063 267.831 306.91 259.769 304.554 246.4C303.173 238.567 301.99 230.607 302.399 222.581C302.583 218.975 300.939 217.593 297.557 217.064C288.819 215.698 285.355 217.543 281.931 225.823C276.111 239.896 269.699 253.539 258.008 264.003C242.723 277.684 213.13 281.596 196.134 263.925C176.655 243.673 188.105 219.031 204.57 209.69C206.301 208.708 208.174 207.963 210.016 207.192C212.501 206.151 213.233 204.416 211.053 202.708C197.694 192.233 192.972 176.771 187.019 161.946C184.42 155.471 181.563 149.03 177.054 143.552C175.272 141.387 173.466 139.138 169.693 139.269C167.224 146.438 166.749 154.099 165.054 161.473C162.481 172.668 160.293 184.017 155.042 194.331C148.308 207.558 138.048 217.038 122.735 218.033C99.5002 219.541 82.0995 201.437 88.819 177.496C90.2258 172.483 93.7492 168.884 98.3155 165.682C98.6641 165.398 98.8586 165.208 98.8586 165.208ZM321.593 199.86C323.784 200.807 324.05 199.069 324.58 197.711C325.326 195.8 326.581 194.64 328.764 194.978C331.082 195.336 331.421 197.327 331.799 199.065C333.535 207.045 331.33 211.385 323.711 214.455C321.416 215.38 319.938 216.451 320.045 219.052C320.41 227.848 320.463 236.704 323.073 245.211C325.225 252.228 329.247 252.996 334.035 247.389C337.639 243.168 339.996 238.14 342.191 233.113C344.178 228.563 347.078 226.593 352.007 228.026C353.089 228.34 354.263 228.342 355.342 228.481C374.104 179.663 360.573 107.903 299.303 68.7963C242.181 32.3376 173.594 47.2336 138.173 80.4279C148.136 76.2831 157.14 73.3975 166.63 72.5916C180.498 71.4137 194.263 71.2498 207.147 77.8395C222.495 85.6889 226.561 102.555 216.459 116.576C211.075 124.048 203.386 128.225 195.118 131.625C192.762 132.593 189.959 132.894 188.087 135.656C200.882 148.976 206.207 166.155 213.115 182.514C214.415 185.592 216.197 188.41 218.465 190.908C219.961 192.556 221.748 193.675 223.836 194.422C225.325 194.954 226.724 195.269 228.056 194.127C229.537 192.857 229.093 191.535 228.209 190.139C226.379 187.249 228.534 185.832 230.494 184.551C232.764 183.066 234.22 184.543 235.43 186.312C236.652 188.099 237.788 189.946 239.024 191.724C244.73 199.934 244.738 199.929 236.699 205.611C235.176 206.687 233.483 207.779 234.418 210.009C235.249 211.989 236.838 213.318 239.083 213.115C240.707 212.969 242.376 212.54 243.871 211.884C251.882 208.368 260.153 206.121 268.967 205.98C273.614 205.905 277.103 204.048 279.233 199.496C285.401 186.318 293.543 174.323 302.005 162.537C302.831 161.386 304.083 160.277 303.341 157.977C292.236 156.706 281.011 154.461 269.511 155.199C264.662 155.511 259.957 156.5 255.698 159.07C252.453 161.029 249.95 163.577 248.638 167.192C246.871 172.06 248.039 176.833 251.752 179.884C255.49 182.956 261.762 183.294 265.79 180.652C267.454 179.561 269.011 178.139 270.839 177.508C273.256 176.672 275.603 177.2 276.221 180.229C276.938 183.742 273.109 192.292 269.789 193.646C261.803 196.903 251.915 197.479 245.054 189.478C233.387 175.874 237.126 156.108 253.065 147.908C265.993 141.257 279.729 141.756 293.571 143.52C306.031 145.109 318.176 145.027 329.205 137.739C331.405 136.285 333.915 134.523 336.494 136.764C339.162 139.081 337.952 141.948 336.846 144.593C334.085 151.198 331.001 157.681 328.528 164.39C324.381 175.642 321.025 187.118 321.593 199.86ZM224.444 227.123C224.561 224.976 226.063 223.536 227.108 221.855C229.617 217.821 228.331 215.149 223.585 214.73C217.707 214.211 213.281 216.906 209.913 221.459C205.794 227.027 204.382 233.595 204.137 240.277C203.741 251.088 209.713 259.529 219.428 262.26C229.084 264.975 237.353 261.226 245.249 256.139C257.657 248.144 260.715 234.082 267.108 222.221C268.509 219.622 266.578 217.237 263.603 218.166C254.815 220.912 244.094 219.886 239.523 231.141C238.061 234.74 234.04 237.319 229.561 236.198C225.578 235.202 224.627 231.643 224.444 227.123ZM293.01 201.82C295.756 205.116 300.39 205.053 301.352 201.426C303.544 193.16 305.307 184.775 305.952 176.122C300.44 183.852 295.881 192.005 293.01 201.82Z" fill="black"/>
<path d="M98.8586 165.208C105.408 162.651 111.917 160.782 118.085 166.153C121.678 169.281 123.164 172.694 119.825 176.961C119.011 178.002 118.457 179.246 117.778 180.392C116.762 182.109 115.913 184.176 113.297 183.385C111.004 182.691 109.677 181.109 109.544 178.639C109.508 177.973 109.462 177.307 109.382 176.646C109.17 174.893 108.562 173.365 106.675 172.852C104.819 172.348 103.504 173.368 102.273 174.592C97.0511 179.786 96.465 189.302 100.984 195.832C110.037 208.913 128.451 208.02 137.373 193.954C142.645 185.641 144.908 176.257 146.321 166.646C147.263 160.236 147.976 153.79 149.031 147.399C149.556 144.227 149.48 141.921 145.659 141.029C142.861 140.377 140.853 138.367 140.904 135.342C140.957 132.23 143.237 130.465 146.04 130.054C151.693 129.225 153.352 125.511 154.507 120.533C156.353 112.575 159.177 104.916 163.955 98.1127C168.273 91.9639 174.074 88.0649 181.31 86.2987C183.131 85.8542 185.452 84.8129 186.369 87.6355C187.146 90.0243 187.008 92.4979 184.247 93.5275C178.433 95.6954 175.953 100.447 174.285 105.849C172.516 111.578 171.133 117.384 170.753 123.416C170.519 127.121 171.811 128.952 175.619 128.097C190.418 124.774 199.93 116.826 203.003 103.014C204.959 94.2262 200 87.239 189.939 85.1572C166.959 80.4019 135.481 90.7569 121.366 111.725C117.638 117.263 115.203 123.114 115.836 129.967C116.637 138.649 122.875 142.725 130.68 139.182C134.212 137.579 136.506 139.467 138.864 141.043C141.066 142.516 140.075 144.963 139.478 147.008C137.266 154.588 131.225 157.926 121.346 157.117C105.472 155.816 94.6084 140.275 97.7161 123.425C99.073 116.067 102.258 109.68 106.606 103.583C122.646 81.0897 142.861 63.7392 168.25 52.6559C225.209 27.7901 292.646 42.3949 333.491 88.8343C353.572 111.666 365.648 138.254 369.11 168.734C377.653 243.952 326.003 312.961 251.297 326.418C191.352 337.216 130.651 308.981 100.289 254.834C99.5646 253.542 98.9611 252.138 98.5813 250.711C98.2672 249.532 98.7603 248.375 99.8528 247.684C101.083 246.904 102.521 246.783 103.575 247.757C104.648 248.749 105.501 250.04 106.24 251.321C127.744 288.609 159.676 311.732 201.87 319.52C234.581 325.558 265.801 319.883 294.765 303.067C307.551 295.643 318.986 286.573 328.693 275.389C330.077 273.795 331.79 272.39 332.418 270.23C331.113 268.758 329.427 268.796 327.786 268.699C313.063 267.831 306.91 259.769 304.554 246.4C303.173 238.567 301.99 230.607 302.399 222.581C302.583 218.975 300.939 217.593 297.557 217.064C288.819 215.698 285.355 217.543 281.931 225.823C276.111 239.896 269.699 253.539 258.008 264.003C242.723 277.684 213.13 281.596 196.134 263.925C176.655 243.673 188.105 219.031 204.57 209.69C206.301 208.708 208.174 207.963 210.016 207.192C212.501 206.151 213.233 204.416 211.053 202.708C197.694 192.233 192.972 176.771 187.019 161.946C184.42 155.471 181.563 149.03 177.054 143.552C175.272 141.387 173.466 139.138 169.693 139.269C167.224 146.438 166.749 154.099 165.054 161.473C162.481 172.668 160.293 184.017 155.042 194.331C148.308 207.558 138.048 217.038 122.735 218.033C99.5002 219.541 82.0995 201.437 88.819 177.496C90.2258 172.483 93.7492 168.884 98.3155 165.682C98.6641 165.398 98.8586 165.208 98.8586 165.208ZM321.593 199.86C323.784 200.807 324.05 199.069 324.58 197.711C325.326 195.8 326.581 194.64 328.764 194.978C331.082 195.336 331.421 197.327 331.799 199.065C333.535 207.045 331.33 211.385 323.711 214.455C321.416 215.38 319.938 216.451 320.045 219.052C320.41 227.848 320.463 236.704 323.073 245.211C325.225 252.228 329.247 252.996 334.035 247.389C337.639 243.168 339.996 238.14 342.191 233.113C344.178 228.563 347.078 226.593 352.007 228.026C353.089 228.34 354.263 228.342 355.342 228.481C374.104 179.663 360.573 107.903 299.303 68.7963C242.181 32.3376 173.594 47.2336 138.173 80.4279C148.136 76.2831 157.14 73.3975 166.63 72.5916C180.498 71.4137 194.263 71.2498 207.147 77.8395C222.495 85.6889 226.561 102.555 216.459 116.576C211.075 124.048 203.386 128.225 195.118 131.625C192.762 132.593 189.959 132.894 188.087 135.656C200.882 148.976 206.207 166.155 213.115 182.514C214.415 185.592 216.197 188.41 218.465 190.908C219.961 192.556 221.748 193.675 223.836 194.422C225.325 194.954 226.724 195.269 228.056 194.127C229.537 192.857 229.093 191.535 228.209 190.139C226.379 187.249 228.534 185.832 230.494 184.551C232.764 183.066 234.22 184.543 235.43 186.312C236.652 188.099 237.788 189.946 239.024 191.724C244.73 199.934 244.738 199.929 236.699 205.611C235.176 206.687 233.483 207.779 234.418 210.009C235.249 211.989 236.838 213.318 239.083 213.115C240.707 212.969 242.376 212.54 243.871 211.884C251.882 208.368 260.153 206.121 268.967 205.98C273.614 205.905 277.103 204.048 279.233 199.496C285.401 186.318 293.543 174.323 302.005 162.537C302.831 161.386 304.083 160.277 303.341 157.977C292.236 156.706 281.011 154.461 269.511 155.199C264.662 155.511 259.957 156.5 255.698 159.07C252.453 161.029 249.95 163.577 248.638 167.192C246.871 172.06 248.039 176.833 251.752 179.884C255.49 182.956 261.762 183.294 265.79 180.652C267.454 179.561 269.011 178.139 270.839 177.508C273.256 176.672 275.603 177.2 276.221 180.229C276.938 183.742 273.109 192.292 269.789 193.646C261.803 196.903 251.915 197.479 245.054 189.478C233.387 175.874 237.126 156.108 253.065 147.908C265.993 141.257 279.729 141.756 293.571 143.52C306.031 145.109 318.176 145.027 329.205 137.739C331.405 136.285 333.915 134.523 336.494 136.764C339.162 139.081 337.952 141.948 336.846 144.593C334.085 151.198 331.001 157.681 328.528 164.39C324.381 175.642 321.025 187.118 321.593 199.86ZM224.444 227.123C224.561 224.976 226.063 223.536 227.108 221.855C229.617 217.821 228.331 215.149 223.585 214.73C217.707 214.211 213.281 216.906 209.913 221.459C205.794 227.027 204.382 233.595 204.137 240.277C203.741 251.088 209.713 259.529 219.428 262.26C229.084 264.975 237.353 261.226 245.249 256.139C257.657 248.144 260.715 234.082 267.108 222.221C268.509 219.622 266.578 217.237 263.603 218.166C254.815 220.912 244.094 219.886 239.523 231.141C238.061 234.74 234.04 237.319 229.561 236.198C225.578 235.202 224.627 231.643 224.444 227.123ZM293.01 201.82C295.756 205.116 300.39 205.053 301.352 201.426C303.544 193.16 305.307 184.775 305.952 176.122C300.44 183.852 295.881 192.005 293.01 201.82Z" stroke="black" stroke-width="4" mask="url(#path-1-outside-1_35_950)"/>
<path d="M64.6909 201.769L64.7015 201.776C74.9449 207.994 85.3449 213.324 97.8925 213.413L101.377 213.437L98.4358 211.569C72.8993 195.345 51.4439 175.668 38.6174 147.905C25.7768 120.111 24.8835 90.7613 28.0338 60.3872L28.2074 58.7137L26.6544 59.361C23.9194 60.501 23.1282 62.418 22.5505 63.8176C22.4441 64.0753 22.345 64.3154 22.2424 64.53L23.1444 64.9617L22.2424 64.53C12.7274 84.4105 10.34 105.246 13.8925 126.861C19.2614 159.529 36.4995 184.173 64.6909 201.769Z" fill="black" stroke="black" stroke-width="2"/>
<path d="M154.347 228.488L154.212 228.479L154.08 228.506C143.024 230.779 132.161 231.343 121.193 231.42C102.418 231.553 84.4686 228.007 67.4194 220.088C42.4502 208.491 23.4723 189.953 7.28666 168.033C7.03565 167.693 6.80674 167.314 6.54381 166.879C6.53211 166.859 6.52033 166.84 6.50848 166.82C6.24005 166.376 5.9377 165.88 5.57906 165.41C4.84067 164.441 3.8365 163.545 2.24044 163.166L1.05425 162.884L1.00987 164.103C0.895982 167.229 1.79922 169.905 2.6244 172.349C2.74045 172.693 2.85495 173.032 2.96487 173.367C7.87278 188.335 15.9078 201.489 26.9871 212.604C42.965 228.633 60.4927 238.67 79.4165 243.135C98.3362 247.599 118.589 246.48 140.002 240.293C145.526 238.697 150.809 236.261 155.563 232.863C155.648 232.803 155.741 232.738 155.839 232.669C156.117 232.474 156.434 232.251 156.702 232.038C156.889 231.89 157.083 231.723 157.25 231.544C157.409 231.373 157.599 231.136 157.71 230.84C157.835 230.51 157.867 230.081 157.637 229.665C157.432 229.295 157.097 229.08 156.814 228.95C156.256 228.695 155.429 228.558 154.347 228.488Z" fill="black" stroke="black" stroke-width="2"/>
<path d="M98.7518 166.714L98.1089 166.382C93.9326 164.23 91.4971 160.456 89.3029 156.984C77.4208 138.183 72.4507 116.945 73.1453 95.4528C74.0538 67.3377 85.7896 42.8095 105.916 22.7563C114.217 14.4847 123.644 7.81314 134.324 2.93859L134.739 3.84693L134.324 2.93858C135.879 2.22909 137.484 1.64654 139.062 1.10468M98.7518 166.714L139.062 1.10468M98.7518 166.714L99.2677 166.207M98.7518 166.714L99.2677 166.207M139.062 1.10468C139.51 0.950929 139.961 1.00064 140.311 1.04088M139.062 1.10468L140.311 1.04088M99.2677 166.207L99.2756 166.199C99.3326 166.144 99.5203 165.961 99.6454 165.685C99.7952 165.355 99.8304 164.959 99.6882 164.544L99.6847 164.534C99.4722 163.935 99.2754 163.392 99.0907 162.882C98.776 162.014 98.4963 161.242 98.2335 160.453C90.101 136.027 87.1282 111.197 91.9754 85.7727C96.7139 60.9175 109.033 39.9006 125.368 20.8459C130.294 15.0992 135.671 9.76392 141.544 3.93624C141.883 3.59921 142.225 3.26054 142.568 2.92005L144.122 1.37689M99.2677 166.207L144.122 1.37689M144.122 1.37689L141.938 1.21319M144.122 1.37689L141.938 1.21319M141.938 1.21319C141.367 1.1704 140.954 1.11937 140.612 1.07713M141.938 1.21319L140.612 1.07713M140.612 1.07713C140.506 1.06403 140.406 1.05178 140.311 1.04088M140.612 1.07713L140.311 1.04088" fill="black" stroke="black" stroke-width="2"/>
<path d="M84.6637 179.937C64.9256 150.272 54.9804 118.222 60.072 81.9602C64.0611 58.3578 73.5828 37.2945 85.3708 17.0257L87.1954 13.8885L84.0214 15.6484C60.8586 28.4921 37.0285 66.7304 41.5139 114.123C42.6109 125.715 49.1001 142.338 57.3887 156.485C61.5407 163.571 66.1709 170.082 70.8483 175.064C75.4974 180.016 80.3082 183.582 84.838 184.558L85.7544 184.755L86.0105 183.853C86.2927 182.86 86.0496 182.042 85.6848 181.392C85.5119 181.084 85.3082 180.806 85.1323 180.573C85.0927 180.521 85.0549 180.471 85.0186 180.424C84.8822 180.244 84.768 180.094 84.6637 179.937Z" fill="black" stroke="black" stroke-width="2"/>
<path d="M263.099 111.114L263.12 111.103L250.357 84.3655L249.372 84.1928C249.372 84.1928 249.372 84.1928 249.372 84.1928C249.151 85.4524 248.951 86.7003 248.753 87.9396C248.349 90.4608 247.951 92.946 247.393 95.4199C246.525 99.2687 245.611 101.357 244.129 102.652C242.639 103.955 240.403 104.609 236.437 105.078C236.203 105.106 235.935 105.095 235.547 105.078C235.195 105.062 234.74 105.042 234.283 105.103C233.809 105.167 233.292 105.322 232.813 105.681C232.333 106.04 231.959 106.551 231.684 107.212L231.364 107.98L232.061 108.435C232.208 108.53 232.317 108.617 232.453 108.724C232.549 108.799 232.658 108.885 232.802 108.993C233.083 109.201 233.49 109.475 233.995 109.581C238.843 110.591 242.415 112.521 244.831 115.355C247.247 118.189 248.599 122.034 248.806 127.05C248.814 127.229 248.815 127.442 248.817 127.681C248.822 128.461 248.829 129.502 249.053 130.445C249.372 131.789 250.145 133.116 251.895 133.897L252.771 134.289L253.198 133.429C254.243 131.325 254.579 129.234 254.887 127.32C254.946 126.953 255.004 126.592 255.066 126.239C255.105 126.015 255.144 125.791 255.183 125.568C256.21 119.653 257.152 114.227 263.099 111.114Z" fill="black" stroke="black" stroke-width="2"/>
</svg>
