<svg width="253" height="200" viewBox="0 0 253 200" fill="none" xmlns="http://www.w3.org/2000/svg">
<g filter="url(#filter0_d_36_960)">
<path d="M16.0052 170.087C55.8263 180.478 150.852 202.309 190.899 184.537C239.469 162.982 261.432 106.192 239.934 57.7476C218.436 9.30359 161.588 -12.5126 113.018 9.0416C72.9712 26.8137 25.404 111.925 6.39173 148.424C1.87583 157.157 6.50002 167.577 16.0052 170.087ZM181.284 83.7753C184.726 91.5326 184.938 100.343 181.873 108.269C178.808 116.195 172.716 122.587 164.939 126.038C157.162 129.49 148.335 129.718 140.401 126.674C132.467 123.629 126.076 117.56 122.634 109.803C119.191 102.046 118.979 93.2349 122.044 85.309C125.11 77.3832 131.201 70.9915 138.979 67.54C146.756 64.0885 155.583 63.8599 163.516 66.9047C171.45 69.9494 177.841 76.0179 181.284 83.7753Z" fill="black" fill-opacity="0.05" shape-rendering="crispEdges"/>
</g>
<defs>
<filter id="filter0_d_36_960" x="0.647842" y="0.730225" width="251.537" height="198.546" filterUnits="userSpaceOnUse" color-interpolation-filters="sRGB">
<feFlood flood-opacity="0" result="BackgroundImageFix"/>
<feColorMatrix in="SourceAlpha" type="matrix" values="0 0 0 0 0 0 0 0 0 0 0 0 0 0 0 0 0 0 127 0" result="hardAlpha"/>
<feOffset dy="4"/>
<feGaussianBlur stdDeviation="2"/>
<feComposite in2="hardAlpha" operator="out"/>
<feColorMatrix type="matrix" values="0 0 0 0 0 0 0 0 0 0 0 0 0 0 0 0 0 0 0.25 0"/>
<feBlend mode="normal" in2="BackgroundImageFix" result="effect1_dropShadow_36_960"/>
<feBlend mode="normal" in="SourceGraphic" in2="effect1_dropShadow_36_960" result="shape"/>
</filter>
</defs>
</svg>
