<svg width="384" height="512" viewBox="0 0 384 512" fill="none" xmlns="http://www.w3.org/2000/svg">
<g filter="url(#filter0_d_36_959)">
<path d="M215.7 499.2C267 435 384 279.4 384 192C384 86 298 0 192 0C86 0 0 86 0 192C0 279.4 117 435 168.3 499.2C180.6 514.5 203.4 514.5 215.7 499.2ZM192 128C208.974 128 225.253 134.743 237.255 146.745C249.257 158.747 256 175.026 256 192C256 208.974 249.257 225.253 237.255 237.255C225.253 249.257 208.974 256 192 256C175.026 256 158.747 249.257 146.745 237.255C134.743 225.253 128 208.974 128 192C128 175.026 134.743 158.747 146.745 146.745C158.747 134.743 175.026 128 192 128Z" fill="#FF0000"/>
</g>
<defs>
<filter id="filter0_d_36_959" x="-4" y="0" width="392" height="518.675" filterUnits="userSpaceOnUse" color-interpolation-filters="sRGB">
<feFlood flood-opacity="0" result="BackgroundImageFix"/>
<feColorMatrix in="SourceAlpha" type="matrix" values="0 0 0 0 0 0 0 0 0 0 0 0 0 0 0 0 0 0 127 0" result="hardAlpha"/>
<feOffset dy="4"/>
<feGaussianBlur stdDeviation="2"/>
<feComposite in2="hardAlpha" operator="out"/>
<feColorMatrix type="matrix" values="0 0 0 0 0 0 0 0 0 0 0 0 0 0 0 0 0 0 0.25 0"/>
<feBlend mode="normal" in2="BackgroundImageFix" result="effect1_dropShadow_36_959"/>
<feBlend mode="normal" in="SourceGraphic" in2="effect1_dropShadow_36_959" result="shape"/>
</filter>
</defs>
</svg>
