<svg width="84" height="84" viewBox="0 0 84 84" fill="none" xmlns="http://www.w3.org/2000/svg">
<path fill-rule="evenodd" clip-rule="evenodd" d="M57.6322 20.8409L64.7495 10.4366C58.169 10.8286 50.2106 12.374 42.5747 14.5831C37.386 16.0842 31.6075 15.8577 26.2353 14.8665C24.5433 14.5543 22.8764 14.1634 21.2626 13.7188L26.0968 20.8356C35.9678 24.4794 47.7596 24.4811 57.6322 20.8409ZM23.6357 24.3795C34.9925 28.8881 48.7631 28.8866 60.1185 24.3753C64.7354 29.1651 69.5045 35.1256 73.179 41.3603C77.0206 47.8782 79.4454 54.3245 79.6049 59.8614C79.7557 65.1014 77.9148 69.6157 72.729 73.0818C67.2334 76.7549 57.6572 79.4549 41.952 79.6068C26.2424 79.7586 16.6515 77.2416 11.1403 73.6785C5.95371 70.3253 4.07704 65.8596 4.1953 60.5903C4.32034 55.0199 6.71724 48.4809 10.5505 41.8252C14.2099 35.4713 18.9802 29.3528 23.6357 24.3795ZM20.2427 9.0497C22.395 9.72719 24.6751 10.3177 26.9956 10.7458C32.019 11.6727 37.0803 11.8106 41.4102 10.558C46.9129 8.96602 52.6897 7.67606 58.103 6.9119C53.4838 5.39118 47.8991 4.19017 41.9924 4.19017C33.4675 4.19017 25.5533 6.69158 20.2427 9.0497ZM16.2304 6.31105C21.8974 3.47252 31.4785 0 41.9924 0C52.3116 0 61.6598 3.34508 67.3023 6.1527C67.3972 6.19986 67.4909 6.24685 67.5835 6.2937C69.1039 7.06207 70.3396 7.78471 71.2329 8.38034L62.6338 20.9509C82.4571 41.216 106.116 83.177 41.9924 83.7967C-22.1316 84.4164 1.11404 41.991 21.1097 20.9509L12.5705 8.38034C13.168 7.98764 13.9156 7.53975 14.7959 7.05991C15.2409 6.81745 15.7196 6.56682 16.2304 6.31105Z" fill="#10B981"/>
<path d="M38.3164 35.6165H45.487V38.9686H52.6577V45.6729H38.3164L37.9937 45.6997C37.5804 45.7697 37.2064 45.9731 36.9372 46.2746C36.668 46.5758 36.5203 46.9563 36.5203 47.3489C36.5203 47.7416 36.668 48.122 36.9372 48.4233C37.2064 48.7248 37.5804 48.9282 37.9937 48.9982L38.3164 49.025H45.487L46.0749 49.0418C48.4004 49.1794 50.5772 50.1582 52.144 51.7708C53.7104 53.3834 54.5439 55.503 54.4674 57.6804C54.3909 59.8579 53.4106 61.9217 51.7344 63.4346C50.0577 64.9479 47.8172 65.7911 45.487 65.7857V69.1378H38.3164V65.7857H31.1457V59.0814H45.487L45.8097 59.0546C46.223 58.9846 46.597 58.7812 46.8662 58.4797C47.1354 58.1784 47.2831 57.798 47.2831 57.4053C47.2831 57.0127 47.1354 56.6323 46.8662 56.331C46.597 56.0295 46.223 55.8261 45.8097 55.7561L45.487 55.7293H38.3164L37.7285 55.7125C35.403 55.5749 33.2262 54.596 31.6595 52.9835C30.093 51.3709 29.2595 49.2513 29.336 47.0739C29.4125 44.8964 30.3928 42.8326 32.0691 41.3197C33.7457 39.8064 35.9862 38.9631 38.3164 38.9686V35.6165Z" fill="#10B981"/>
</svg>
